<?xml version="1.0" standalone="no"?>
<!DOCTYPE svg PUBLIC "-//W3C//DTD SVG 20010904//EN"
 "http://www.w3.org/TR/2001/REC-SVG-20010904/DTD/svg10.dtd">
<svg version="1.0" xmlns="http://www.w3.org/2000/svg"
 width="231.000000pt" height="140.000000pt" viewBox="0 0 231.000000 140.000000"
 preserveAspectRatio="xMidYMid meet">

<g transform="translate(0.000000,140.000000) scale(0.100000,-0.100000)"
fill="#000000" stroke="none">
<path d="M1036 1200 c-64 -83 -117 -154 -119 -159 -1 -5 53 -52 121 -105 l122
-96 0 255 c0 140 -2 255 -4 255 -2 0 -56 -68 -120 -150z"/>
<path d="M1180 1097 l0 -257 118 91 c64 51 120 95 124 98 6 5 -195 277 -233
316 -5 5 -9 -89 -9 -248z"/>
<path d="M854 967 c-21 -28 -52 -69 -67 -89 l-29 -38 182 0 182 0 -54 42 c-29
23 -80 63 -114 89 l-61 48 -39 -52z"/>
<path d="M1332 929 l-114 -89 182 0 c144 0 180 3 173 13 -23 30 -117 153 -122
158 -3 4 -57 -33 -119 -82z"/>
</g>
</svg>
